#!OML:ASF F:\VICON\USERDATA\INSTALL\rory3\rory3.ASF
:FULLY-SPECIFIED
:DEGREES
64
root 0.8491931030319546 18.4165462426021 30.83172610685405 4.353062091100749 -2.2047370285160373 -3.6370537254205653
lfemur -24.01156008252531 -1.9988710605578248 -18.996200550063897
ltibia 22.936283688369183
lfoot 8.126824786810802 -12.92768318864844
ltoes -17.542654544458827
rfemur 1.3359071248874361 7.60150325853127 32.140462191364776
rtibia 40.62695370065881
rfoot 22.731267294707617 -5.743456312523835
rtoes 17.427214904624805
lowerback 11.12821374420658 2.2247786705805312 3.552343342791678
upperback -1.5874389335861854 3.57394366733372 0.5968944698712112
thorax -7.463583104201302 1.6234814098199069 -2.2636151162065623
lowerneck -17.05140475390751 -3.7863080541142264 -3.231570310288253
upperneck 12.490965725899837 -4.606518645560925 4.161029220660008
head 7.692895187244557 -2.036913486117794 1.2287818790247254
lclavicle -1.5473630873464358e-15 -3.2983482515462604e-15
lhumerus -58.45911127788381 -3.743604571995546 88.03287057642144
lradius 112.81270187104337
lwrist 31.647451762410228
lhand -26.125663391925723 3.338176125019809
lfingers 7.12502
lthumb 0.4115738276864769 32.636856533091255
rclavicle -1.5377029111006528e-15 -3.292666229410974e-15
rhumerus -40.72360707762182 19.482186619873357 -96.41941298713786
rradius 125.93788424525115
rwrist -20.67586295163871
rhand -18.03813595033389 37.63849228317762
rfingers 7.12502
rthumb 7.650563632047558 8.153469112738426
65
root 0.789295062037781 18.1834259165948 31.95289927639143 3.3107213750921964 -0.4005506615191414 -3.7299970553572424
lfemur -22.580410096514047 -3.0154620541168065 -19.35038978649148
ltibia 23.054972514454498
lfoot 5.823062844903006 -14.4383657988143
ltoes -21.636201136476355
rfemur -0.17967002226706974 5.574596441688749 31.547067717894787
rtibia 45.93757309771921
rfoot 21.760513994976122 -6.028770420762222
rtoes 14.706307621850419
lowerback 12.16081712384131 1.7961203203363754 3.6010456997811264
upperback -1.2916849749444639 3.059397752799378 0.7200824059263333
thorax -7.8063253974833415 1.4221714318540424 -2.0200357606838963
lowerneck -17.060527811863736 -3.704035568595922 -3.279856714733913
upperneck 12.040717484877625 -4.491552596676344 4.289320174169732
head 7.519853925068877 -1.9653747273373463 1.3323749859531566
lclavicle -1.5464263753952688e-15 -3.2976620455158295e-15
lhumerus -57.11158167955283 -4.35916451330129 88.34496912124737
lradius 112.84751140699775
lwrist 31.189861706403924
lhand -26.962423103069327 3.2322934825354026
lfingers 7.12502
lthumb -0.4394286703479968 32.79458610711919
rclavicle -1.540079515872511e-15 -3.2945866658119343e-15
rhumerus -41.069719129941355 18.454650474254354 -96.59605372629669
rradius 125.15323305551613
rwrist -20.613398878520563
rhand -17.9322517814281 38.22664968790514
rfingers 7.12502
rthumb 7.772599106241342 8.813699843475263
66
root 0.7449921388987071 18.008099733920936 32.77993822890558 2.3510431667426372 0.9753004610907707 -2.95072710005463
lfemur -21.745015961347963 -3.762359628890131 -20.673696726398262
ltibia 25.45296432447011
lfoot 4.2037090912090305 -14.610395867760758
ltoes -11.51701417819508
rfemur -1.8726703035209837 3.7158951689572333 29.746843578389207
rtibia 51.99223679746372
rfoot 20.34203890198082 -5.850955569345935
rtoes 13.508553227674362
lowerback 12.908496496948413 1.490975169326799 2.540109635010238
upperback -1.0241604279144154 2.487296017199169 0.6028882442109035
thorax -8.309436663138742 1.1602592678032129 -1.428035232507865
lowerneck -16.900786998476626 -3.67559528488598 -3.329768785699587
upperneck 11.318393073172496 -4.461970978632352 4.467291797042591
head 7.192603958424591 -1.9079034397320893 1.4588974787778708
lclavicle -1.5493084953344719e-15 -3.299752923999173e-15
lhumerus -55.453807694087146 -5.26828443633814 88.74015310221846
lradius 112.73684724926885
lwrist 31.536518366358337
lhand -27.09270860239646 2.795397618212701
lfingers 7.12502
lthumb -0.4394636558122753 32.27917001053963
rclavicle -1.5391486353146352e-15 -3.2940773718594944e-15
rhumerus -41.0507242889317 17.511082680935164 -96.68318136845873
rradius 123.90691323878286
rwrist -20.937885061963726
rhand -18.11203022524798 38.0947844047749
rfingers 7.12502
rthumb 7.606448606947729 9.203003095700836
67
root 0.7211901868645885 17.77285181170925 33.71007525917379 1.3324089234272938 2.1100392094212506 -2.5169750877867374
lfemur -20.850534595006714 -4.404448940259834 -21.46635852520313
ltibia 29.94227858741864
lfoot -0.14781582000614168 -14.977509555423612
ltoes -2.5885533508218117
rfemur -3.8217459401043037 1.8994629016474238 28.140004869755234
rtibia 58.31580414799539
rfoot 18.525351924892774 -5.993476726502229
rtoes 14.53864531251593
lowerback 13.831059121375043 1.1937009541879486 1.9119681269599584
upperback -0.6271620991135975 1.8733730384934668 0.4971109734705752
thorax -8.727664728859416 0.8835968743348439 -0.928472536683873
lowerneck -16.93114771381662 -3.6417589552048004 -3.338239143090775
upperneck 11.15185808057596 -4.434509358309318 4.613590921569142
head 7.193507418836341 -1.8482647917642185 1.531186272384009
lclavicle -1.5477430465693966e-15 -3.298632528672943e-15
lhumerus -53.40091766953557 -5.9331720073850125 88.9656736739839
lradius 112.33432855155057
lwrist 31.969452082635186
lhand -27.99272770007848 2.8842061298502055
lfingers 7.12502
lthumb -0.82357373201894 32.58623058449855
rclavicle -1.540435806009302e-15 -3.294931975643755e-15
rhumerus -41.36429349057137 16.170790762307817 -96.90457242165292
rradius 122.59944164677172
rwrist -20.731555729555353
rhand -18.097043381905145 37.89901793706005
rfingers 7.12502
rthumb 7.6123971198312255 8.94641209390209
68
root 0.6986166067731665 17.590392851218976 34.60072622722959 0.6030985185970179 1.8026383819888827 -1.5846291435564175
lfemur -19.565609962330637 -4.426028112427583 -22.79720737971012
ltibia 34.4858481270858
lfoot -4.7685299268755825 -13.24112574244919
ltoes 2.0967670395600493
rfemur -6.324006804132027 1.4821947868977912 26.056436677798533
rtibia 64.35290642370731
rfoot 16.870903265118663 -5.895742048371606
rtoes 13.768105452097613
lowerback 14.723184722128186 1.247479052947528 0.5601781275086961
upperback -0.39665683966501686 1.7300186703796387 0.18699642087587764
thorax -9.479753891456408 0.8430569491077559 -0.28725973464239624
lowerneck -17.182878504743783 -3.661659596818505 -3.2693106721795506
upperneck 11.125253622560052 -4.484364190773356 4.72799610369611
head 7.187622027888413 -1.8410216973204874 1.5613547249329103
lclavicle -1.5499295450120595e-15 -3.3002270886373376e-15
lhumerus -51.61411683077308 -6.747565439999358 88.98820410605568
lradius 111.87386928476856
lwrist 32.46409361234307
lhand -27.84900284077346 3.6580245409208403
lfingers 7.12502
lthumb -0.8079204526498345 33.45909173797275
rclavicle -1.5407474455197125e-15 -3.294954275677553e-15
rhumerus -41.627153149744906 14.880451442618188 -97.15085373387609
rradius 120.7269073776976
rwrist -20.79661503064374
rhand -18.338295685074367 37.448104597339345
rfingers 7.12502
rthumb 7.455220701617462 8.32585764547324
69
root 0.6612553047935472 17.43554549038543 35.65166636920242 1.1806706020957956 1.7417071940527968 0.44893945248286027
lfemur -17.873398993658185 -5.722503821522666 -25.67928605252018
ltibia 38.71234896925623
lfoot -9.227282494517226 -10.136284241317318
ltoes 2.2036984636250683
rfemur -9.861998885436913 1.1588565500189747 22.64050044596336
rtibia 70.48511014101348
rfoot 15.00252625222851 -5.373563419471385
rtoes 16.435173104652968
lowerback 14.459110312420885 1.2614659544066669 -1.6016914360224614
upperback -0.31560879310378687 1.344145785986499 -0.5462045037323113
thorax -9.556938288594727 0.7372250439487278 0.6224609431030633
lowerneck -17.629370887326022 -3.598772931015419 -3.2046916766922067
upperneck 11.292242652789882 -4.427632021966491 4.877777333074344
head 7.287048044167331 -1.7700754442833175 1.629583199391249
lclavicle -1.5467855807991656e-15 -3.2979353012719966e-15
lhumerus -49.75361484696538 -7.28599784329819 88.9028972624094
lradius 111.3696964798921
lwrist 32.88179784449972
lhand -27.334508676587227 3.6121660229196273
lfingers 7.12502
lthumb -0.22680574698718448 33.447652814091136
rclavicle -1.5413869767380873e-15 -3.29554725506582e-15
rhumerus -41.98065851433125 13.589420318168251 -97.22051706258237
rradius 118.49471830988388
rwrist -20.71201860808621
rhand -18.475247746130137 37.3110151821335
rfingers 7.12502
rthumb 7.32629084704486 7.297486584944957
